<svg xmlns="http://www.w3.org/2000/svg" xmlns:xlink="http://www.w3.org/1999/xlink" viewBox="0 0 917.2 917.2"><defs><style>.cls-1{fill:none;}.cls-2{fill:#fff;}.cls-3{clip-path:url(#clip-path);}.cls-4{fill:#402b09;}.cls-5{fill:#ff6900;}</style><clipPath id="clip-path"><rect class="cls-1" x="147.76" y="83.83" width="621.69" height="749.53"/></clipPath></defs><g id="Layer_2" data-name="Layer 2"><g id="Layer_1-2" data-name="Layer 1"><rect class="cls-2" width="917.2" height="917.2" rx="67.87"/><g class="cls-3"><path class="cls-4" d="M238.78,174.9q-5.39,5.39-10.51,11t-10,11.54q-4.84,5.9-9.38,12t-8.77,12.46q-4.24,6.34-8.15,12.88t-7.51,13.26q-3.6,6.71-6.86,13.6t-6.17,13.94q-2.92,7-5.49,14.21t-4.77,14.47Q159,311.59,157.15,319t-3.34,14.86q-1.49,7.48-2.6,15c-.75,5-1.37,10.07-1.87,15.12s-.87,10.12-1.12,15.2-.37,10.15-.37,15.23.12,10.16.37,15.24.62,10.14,1.12,15.19,1.12,10.1,1.87,15.13,1.61,10,2.6,15,2.11,9.94,3.34,14.86,2.59,9.83,4.07,14.69,3.06,9.69,4.77,14.47,3.54,9.52,5.49,14.22,4,9.34,6.18,13.93,4.45,9.13,6.85,13.61,4.89,8.9,7.51,13.26,5.32,8.65,8.15,12.87,5.74,8.38,8.77,12.46,6.15,8.09,9.38,12,6.54,7.78,10,11.54,6.92,7.45,10.51,11L458.3,833.47l85.25-85.24L324,528.7q-3.3-3.3-6.42-6.75t-6.09-7.06q-3-3.6-5.74-7.35t-5.37-7.62c-1.72-2.58-3.39-5.2-5-7.87s-3.13-5.37-4.6-8.11-2.86-5.52-4.19-8.32-2.59-5.65-3.77-8.53-2.31-5.77-3.36-8.69-2-5.88-2.92-8.85-1.73-6-2.49-9-1.43-6.05-2-9.1-1.14-6.11-1.6-9.18-.83-6.16-1.14-9.25-.53-6.2-.68-9.3-.23-6.21-.23-9.32.08-6.21.23-9.32.38-6.2.68-9.29.69-6.18,1.14-9.25,1-6.14,1.6-9.19,1.28-6.08,2-9.09,1.58-6,2.49-9,1.87-5.92,2.92-8.84,2.17-5.83,3.36-8.7,2.44-5.71,3.77-8.52,2.73-5.59,4.19-8.33,3-5.44,4.6-8.11,3.26-5.29,5-7.87,3.52-5.12,5.37-7.62,3.77-4.95,5.74-7.35,4-4.75,6.09-7.06,4.22-4.55,6.42-6.75,4.45-4.34,6.75-6.43,4.66-4.11,7.06-6.08,4.85-3.88,7.35-5.74,5-3.64,7.62-5.36,5.21-3.39,7.87-5,5.37-3.13,8.11-4.59,5.52-2.86,8.33-4.19,5.65-2.59,8.52-3.78,5.77-2.31,8.7-3.36,5.87-2,8.85-2.92,6-1.73,9-2.48,6-1.44,9.09-2.05,6.11-1.13,9.19-1.59,6.15-.84,9.25-1.14,6.19-.53,9.29-.69,6.21-.22,9.32-.22,6.21.07,9.32.22,6.2.39,9.29.69,6.18.69,9.25,1.14,6.14,1,9.19,1.6,6.07,1.28,9.09,2,6,1.58,9,2.48,5.93,1.88,8.85,2.93,5.83,2.16,8.7,3.35,5.71,2.45,8.52,3.78,5.59,2.72,8.32,4.19,5.45,3,8.12,4.6,5.28,3.26,7.87,5,5.12,3.52,7.62,5.37,4.94,3.76,7.35,5.73,4.75,4,7.05,6.09,4.56,4.23,6.75,6.43,4.35,4.45,6.43,6.75,4.12,4.65,6.09,7.06,3.88,4.85,5.73,7.34,3.64,5,5.37,7.62,3.39,5.21,5,7.88,3.13,5.37,4.6,8.11,2.86,5.51,4.19,8.32,2.59,5.65,3.77,8.52,2.31,5.78,3.36,8.7,2,5.88,2.92,8.85,1.73,6,2.49,9,1.44,6.05,2,9.09,1.14,6.11,1.6,9.19.83,6.16,1.13,9.25.54,6.19.69,9.3.23,6.2.23,9.31-.08,6.21-.23,9.32-.38,6.2-.69,9.29-.68,6.18-1.13,9.25-1,6.14-1.6,9.19-1.28,6.08-2,9.09-1.58,6-2.49,9-1.87,5.93-2.92,8.85-2.17,5.83-3.36,8.7-2.44,5.71-3.77,8.52-2.72,5.58-4.19,8.32-3,5.45-4.6,8.11-3.25,5.3-5,7.88-3.52,5.12-5.37,7.62-3.76,4.95-5.73,7.35-4,4.75-6.09,7.06-4.23,4.55-6.43,6.74q-6.06,6.06-12.64,11.54T566.3,550.58q-7,4.88-14.51,9.08t-15.26,7.74q-7.81,3.52-15.9,6.33t-16.41,4.88q-8.31,2.07-16.78,3.38t-17,1.85L589.18,702.59,677.83,614q5.38-5.38,10.5-11t10-11.54q4.83-5.88,9.37-12t8.77-12.46q4.25-6.35,8.16-12.87t7.51-13.26q3.58-6.72,6.85-13.61t6.17-13.93q2.93-7.05,5.49-14.22t4.78-14.47q2.21-7.29,4.06-14.69T762.79,455q1.49-7.47,2.61-15t1.86-15.13q.75-7.58,1.12-15.19t.38-15.24q0-7.62-.38-15.23T767.26,364c-.5-5.05-1.12-10.1-1.86-15.12s-1.62-10-2.61-15-2.1-9.93-3.34-14.86-2.59-9.83-4.06-14.69-3.07-9.68-4.78-14.47-3.54-9.52-5.49-14.21-4-9.34-6.17-13.94-4.46-9.13-6.85-13.6-4.9-8.91-7.51-13.26-5.33-8.65-8.15-12.88-5.75-8.38-8.78-12.46-6.15-8.08-9.37-12-6.54-7.77-10-11.54-6.91-7.44-10.5-11-7.27-7.1-11-10.51-7.61-6.73-11.54-9.95-7.93-6.35-12-9.38-8.23-5.95-12.46-8.77-8.51-5.54-12.87-8.15-8.78-5.12-13.26-7.52-9-4.67-13.61-6.85-9.24-4.23-13.93-6.17-9.44-3.77-14.22-5.49-9.61-3.3-14.47-4.77-9.75-2.84-14.68-4.07-9.89-2.35-14.87-3.34-10-1.86-15-2.6S493.79,86,488.73,85.46s-10.12-.87-15.2-1.12S463.38,84,458.3,84s-10.16.12-15.23.37-10.14.62-15.2,1.12-10.09,1.12-15.12,1.87-10,1.61-15,2.6S387.8,92,382.87,93.27s-9.83,2.59-14.69,4.07-9.68,3.06-14.47,4.77-9.52,3.55-14.21,5.49-9.34,4-13.93,6.17-9.13,4.46-13.62,6.85-8.9,4.9-13.26,7.52-8.64,5.33-12.87,8.15-8.38,5.75-12.46,8.77-8.08,6.15-12,9.38-7.77,6.54-11.54,9.95S242.37,171.3,238.78,174.9Z"/></g><path class="cls-5" d="M449.36,269.38q-5.58.4-11.11,1.29c-3.68.6-7.34,1.36-10.95,2.29s-7.19,2-10.71,3.24-7,2.64-10.37,4.19-6.71,3.25-10,5.1-6.39,3.83-9.46,6-6,4.39-8.89,6.78-5.62,4.91-8.26,7.55q-3.54,3.56-6.8,7.38t-6.19,7.9q-2.94,4.06-5.55,8.36c-1.73,2.87-3.35,5.79-4.85,8.79s-2.88,6-4.14,9.14-2.38,6.25-3.39,9.44-1.88,6.43-2.62,9.69-1.36,6.55-1.84,9.86-.83,6.64-1,10-.3,6.69-.24,10,.23,6.69.55,10,.78,6.65,1.36,9.94,1.3,6.56,2.15,9.8,1.82,6.44,2.92,9.6,2.33,6.27,3.69,9.34,2.82,6.06,4.42,9l77.77-97.49,49.55,74.89,37.74-45.2,54.47,69.47q2.49-4.44,4.61-9.06c1.41-3.07,2.69-6.21,3.85-9.39s2.19-6.4,3.09-9.67,1.66-6.57,2.29-9.9,1.13-6.67,1.48-10,.59-6.75.67-10.13,0-6.77-.16-10.16-.51-6.74-1-10.1-1.06-6.69-1.8-10-1.59-6.58-2.59-9.81-2.12-6.43-3.38-9.58-2.64-6.23-4.15-9.27-3.13-6-4.88-8.9-3.61-5.73-5.58-8.48-4.06-5.42-6.26-8-4.48-5.07-6.88-7.47a122.69,122.69,0,0,0-10-9,124,124,0,0,0-22.55-14.5,124.19,124.19,0,0,0-12.3-5.35,125.66,125.66,0,0,0-26-6.63,124.92,124.92,0,0,0-26.78-1Z"/></g></g></svg>